<svg width="120" height="174" viewBox="0 0 120 174" fill="none" xmlns="http://www.w3.org/2000/svg">
<g filter="url(#filter0_d_52_65)">
<rect x="35" y="31.4444" width="50" height="102.222" rx="25" stroke="white" stroke-width="3.33333" shape-rendering="crispEdges"/>
</g>
<g filter="url(#filter1_d_52_65)">
<rect x="52.222" y="47.5555" width="15.5556" height="30.787" rx="7.77778" fill="white"/>
<rect x="52.7082" y="48.0416" width="14.5833" height="29.8148" rx="7.29167" stroke="white" stroke-width="0.972222"/>
</g>
<path d="M21.694 151.523C21.3248 151.344 20.8722 151.178 20.3363 151.023C19.8003 150.868 19.2644 150.791 18.7285 150.791C17.8948 150.791 17.2278 150.999 16.7276 151.416C16.2274 151.833 15.9773 152.357 15.9773 152.988C15.9773 153.464 16.1202 153.863 16.406 154.185C16.6919 154.495 17.067 154.762 17.5315 154.989C17.996 155.203 18.4903 155.412 19.0143 155.614C19.4311 155.769 19.842 155.942 20.247 156.132C20.6638 156.323 21.039 156.555 21.3724 156.829C21.7059 157.103 21.9679 157.442 22.1585 157.847C22.3609 158.252 22.4622 158.752 22.4622 159.348C22.4622 160.05 22.2954 160.676 21.962 161.224C21.6285 161.759 21.164 162.176 20.5685 162.474C19.973 162.772 19.2823 162.921 18.4962 162.921C17.865 162.921 17.2874 162.843 16.7633 162.688C16.2512 162.534 15.7986 162.355 15.4056 162.153C15.0245 161.938 14.7208 161.759 14.4945 161.617L14.9054 160.902C15.1674 161.093 15.483 161.283 15.8522 161.474C16.2333 161.664 16.6442 161.825 17.0849 161.956C17.5256 162.087 17.9662 162.153 18.4069 162.153C18.919 162.153 19.4133 162.051 19.8897 161.849C20.378 161.646 20.7769 161.343 21.0866 160.938C21.4082 160.521 21.5689 159.997 21.5689 159.366C21.5689 158.758 21.4201 158.27 21.1223 157.901C20.8246 157.52 20.4435 157.21 19.979 156.972C19.5145 156.734 19.0202 156.519 18.4962 156.329C18.0913 156.174 17.6863 156.013 17.2814 155.846C16.8765 155.668 16.5073 155.459 16.1738 155.221C15.8403 154.971 15.5724 154.673 15.3699 154.328C15.1793 153.982 15.0841 153.566 15.0841 153.077C15.0841 152.47 15.2389 151.94 15.5485 151.487C15.8582 151.035 16.275 150.683 16.7991 150.433C17.335 150.171 17.9424 150.034 18.6213 150.022C19.2168 150.022 19.8182 150.1 20.4256 150.255C21.0449 150.409 21.5808 150.606 22.0334 150.844L21.694 151.523ZM30.6988 162.099C30.3772 162.361 30.014 162.563 29.609 162.706C29.2041 162.849 28.7813 162.921 28.3406 162.921C27.626 162.921 26.9889 162.766 26.4291 162.456C25.8694 162.135 25.4287 161.7 25.1071 161.152C24.7856 160.604 24.6248 159.979 24.6248 159.276C24.6248 158.574 24.7915 157.948 25.125 157.4C25.4585 156.853 25.8991 156.424 26.447 156.114C27.0067 155.793 27.6141 155.632 28.2692 155.632C28.7575 155.632 29.21 155.703 29.6269 155.846C30.0437 155.989 30.407 156.192 30.7166 156.454L30.27 157.025C30.0199 156.823 29.7281 156.656 29.3947 156.525C29.0612 156.394 28.7039 156.329 28.3228 156.329C27.7987 156.329 27.3164 156.46 26.8757 156.722C26.447 156.984 26.1016 157.341 25.8396 157.794C25.5895 158.234 25.4644 158.728 25.4644 159.276C25.4644 159.812 25.5895 160.306 25.8396 160.759C26.1016 161.2 26.4529 161.551 26.8936 161.813C27.3462 162.075 27.8464 162.206 28.3942 162.206C28.7515 162.206 29.085 162.153 29.3947 162.045C29.7043 161.926 29.9842 161.771 30.2343 161.581L30.6988 162.099ZM33.7647 155.793L33.854 157.936L33.7468 157.668C33.9016 157.24 34.1458 156.871 34.4792 156.561C34.8127 156.251 35.1819 156.013 35.5869 155.846C36.0037 155.68 36.4027 155.596 36.7838 155.596L36.7481 156.418C36.2121 156.418 35.7238 156.537 35.2832 156.775C34.8544 157.013 34.509 157.335 34.247 157.74C33.9969 158.133 33.8718 158.58 33.8718 159.08V162.778H33.0322V155.793H33.7647ZM38.1803 159.241C38.1803 158.562 38.3411 157.942 38.6627 157.383C38.9961 156.823 39.4428 156.382 40.0025 156.061C40.5742 155.727 41.2114 155.56 41.914 155.56C42.6286 155.56 43.2658 155.727 43.8256 156.061C44.3853 156.382 44.826 156.823 45.1475 157.383C45.4691 157.942 45.6299 158.562 45.6299 159.241C45.6299 159.919 45.4691 160.539 45.1475 161.098C44.826 161.658 44.3794 162.105 43.8077 162.438C43.2479 162.76 42.6167 162.921 41.914 162.921C41.1994 162.921 40.5623 162.766 40.0025 162.456C39.4428 162.135 38.9961 161.7 38.6627 161.152C38.3411 160.592 38.1803 159.955 38.1803 159.241ZM39.02 159.258C39.02 159.806 39.145 160.306 39.3951 160.759C39.6571 161.2 40.0025 161.551 40.4313 161.813C40.8719 162.075 41.3602 162.206 41.8962 162.206C42.4321 162.206 42.9145 162.075 43.3432 161.813C43.7839 161.551 44.1293 161.2 44.3794 160.759C44.6414 160.306 44.7724 159.806 44.7724 159.258C44.7724 158.711 44.6414 158.216 44.3794 157.776C44.1293 157.323 43.7839 156.966 43.3432 156.704C42.9145 156.43 42.4321 156.293 41.8962 156.293C41.3483 156.293 40.8541 156.436 40.4134 156.722C39.9846 156.996 39.6452 157.359 39.3951 157.811C39.145 158.264 39.02 158.746 39.02 159.258ZM48.123 149.201H48.9626V162.778H48.123V149.201ZM52.1356 149.201H52.9752V162.778H52.1356V149.201ZM62.0549 162.778V150.094H65.1813C66.408 150.094 67.4501 150.29 68.3076 150.683C69.177 151.064 69.8797 151.571 70.4156 152.202C70.9516 152.833 71.3446 153.524 71.5947 154.274C71.8448 155.024 71.9698 155.769 71.9698 156.507C71.9698 157.472 71.8031 158.341 71.4696 159.116C71.1362 159.878 70.6776 160.533 70.0941 161.081C69.5224 161.628 68.8673 162.051 68.1289 162.349C67.3905 162.635 66.6104 162.778 65.7887 162.778H62.0549ZM62.9303 161.938H65.5564C66.3186 161.938 67.0332 161.813 67.7002 161.563C68.3671 161.313 68.9507 160.95 69.4509 160.473C69.963 159.997 70.362 159.425 70.6479 158.758C70.9337 158.079 71.0766 157.311 71.0766 156.454C71.0766 155.727 70.9516 155.036 70.7015 154.381C70.4633 153.714 70.1 153.125 69.6117 152.613C69.1234 152.101 68.522 151.696 67.8074 151.398C67.0928 151.1 66.2591 150.951 65.3063 150.951H62.9303V161.938ZM74.1016 159.241C74.1016 158.562 74.2624 157.942 74.584 157.383C74.9174 156.823 75.364 156.382 75.9238 156.061C76.4955 155.727 77.1326 155.56 77.8353 155.56C78.5499 155.56 79.1871 155.727 79.7468 156.061C80.3066 156.382 80.7473 156.823 81.0688 157.383C81.3904 157.942 81.5512 158.562 81.5512 159.241C81.5512 159.919 81.3904 160.539 81.0688 161.098C80.7473 161.658 80.3007 162.105 79.729 162.438C79.1692 162.76 78.538 162.921 77.8353 162.921C77.1207 162.921 76.4836 162.766 75.9238 162.456C75.364 162.135 74.9174 161.7 74.584 161.152C74.2624 160.592 74.1016 159.955 74.1016 159.241ZM74.9412 159.258C74.9412 159.806 75.0663 160.306 75.3164 160.759C75.5784 161.2 75.9238 161.551 76.3526 161.813C76.7932 162.075 77.2815 162.206 77.8175 162.206C78.3534 162.206 78.8357 162.075 79.2645 161.813C79.7052 161.551 80.0505 161.2 80.3007 160.759C80.5627 160.306 80.6937 159.806 80.6937 159.258C80.6937 158.711 80.5627 158.216 80.3007 157.776C80.0505 157.323 79.7052 156.966 79.2645 156.704C78.8357 156.43 78.3534 156.293 77.8175 156.293C77.2696 156.293 76.7754 156.436 76.3347 156.722C75.9059 156.996 75.5665 157.359 75.3164 157.811C75.0663 158.264 74.9412 158.746 74.9412 159.258ZM87.7826 155.793L90.4266 161.742L90.2301 161.759L92.7847 155.793H93.6422L90.3551 163.207L88.1042 158.24L86.0497 163.207L82.7626 155.793H83.6023L86.2998 161.867L85.9961 161.777L87.7826 157.454L87.0144 155.793H87.7826ZM96.4656 155.793L96.5549 157.99L96.4477 157.561C96.6502 156.954 97.0313 156.477 97.591 156.132C98.1627 155.775 98.7939 155.596 99.4847 155.596C100.14 155.596 100.67 155.793 101.075 156.186C101.48 156.567 101.688 157.067 101.7 157.686V162.778H100.842V157.919C100.83 157.466 100.688 157.091 100.414 156.793C100.14 156.495 99.7407 156.341 99.2167 156.329C98.7522 156.329 98.3175 156.442 97.9126 156.668C97.5077 156.894 97.1801 157.21 96.93 157.615C96.6918 158.02 96.5727 158.49 96.5727 159.026V162.778H95.7331V155.793H96.4656Z" fill="white"/>
<defs>
<filter id="filter0_d_52_65" x="-1.90735e-05" y="0.888883" width="120" height="172.222" filterUnits="userSpaceOnUse" color-interpolation-filters="sRGB">
<feFlood flood-opacity="0" result="BackgroundImageFix"/>
<feColorMatrix in="SourceAlpha" type="matrix" values="0 0 0 0 0 0 0 0 0 0 0 0 0 0 0 0 0 0 127 0" result="hardAlpha"/>
<feOffset dy="4.44444"/>
<feGaussianBlur stdDeviation="16.6667"/>
<feComposite in2="hardAlpha" operator="out"/>
<feColorMatrix type="matrix" values="0 0 0 0 0 0 0 0 0 0 0 0 0 0 0 0 0 0 0.25 0"/>
<feBlend mode="normal" in2="BackgroundImageFix" result="effect1_dropShadow_52_65"/>
<feBlend mode="normal" in="SourceGraphic" in2="effect1_dropShadow_52_65" result="shape"/>
</filter>
<filter id="filter1_d_52_65" x="42.4998" y="39.1296" width="35" height="50.2315" filterUnits="userSpaceOnUse" color-interpolation-filters="sRGB">
<feFlood flood-opacity="0" result="BackgroundImageFix"/>
<feColorMatrix in="SourceAlpha" type="matrix" values="0 0 0 0 0 0 0 0 0 0 0 0 0 0 0 0 0 0 127 0" result="hardAlpha"/>
<feOffset dy="1.2963"/>
<feGaussianBlur stdDeviation="4.86111"/>
<feComposite in2="hardAlpha" operator="out"/>
<feColorMatrix type="matrix" values="0 0 0 0 0 0 0 0 0 0 0 0 0 0 0 0 0 0 0.25 0"/>
<feBlend mode="normal" in2="BackgroundImageFix" result="effect1_dropShadow_52_65"/>
<feBlend mode="normal" in="SourceGraphic" in2="effect1_dropShadow_52_65" result="shape"/>
</filter>
</defs>
</svg>
