<svg width="48" height="48" viewBox="0 0 48 48" fill="none" xmlns="http://www.w3.org/2000/svg">
<path d="M23.696 0C17.2655 0 16.4569 0.02962 13.9303 0.142176C11.4037 0.260656 9.68277 0.657563 8.17511 1.24404C6.59294 1.8374 5.16022 2.77065 3.97796 3.97796C2.77065 5.16022 1.8374 6.59294 1.24404 8.17511C0.657563 9.67981 0.257694 11.4037 0.142176 13.9214C0.02962 16.4539 0 17.2596 0 23.6989C0 30.1324 0.02962 30.9381 0.142176 33.4646C0.260656 35.9883 0.657563 37.7092 1.24404 39.2168C1.85125 40.7749 2.65987 42.0959 3.97796 43.414C5.29309 44.7321 6.61414 45.5437 8.17215 46.1479C9.68277 46.7344 11.4007 47.1343 13.9243 47.2498C16.4539 47.3623 17.2596 47.392 23.696 47.392C30.1324 47.392 30.9351 47.3623 33.4646 47.2498C35.9853 47.1313 37.7121 46.7344 39.2198 46.1479C40.8009 45.5542 42.2326 44.6209 43.414 43.414C44.7321 42.0959 45.5407 40.7749 46.1479 39.2168C46.7314 37.7092 47.1313 35.9883 47.2498 33.4646C47.3623 30.9381 47.392 30.1324 47.392 23.696C47.392 17.2596 47.3623 16.4539 47.2498 13.9243C47.1313 11.4037 46.7314 9.67981 46.1479 8.17511C45.5545 6.59294 44.6213 5.16022 43.414 3.97796C42.2317 2.77065 40.799 1.8374 39.2168 1.24404C37.7062 0.657563 35.9823 0.257694 33.4617 0.142176C30.9321 0.02962 30.1294 0 23.6901 0H23.696ZM21.5722 4.2712H23.6989C30.0258 4.2712 30.7751 4.29193 33.2721 4.40745C35.5825 4.51112 36.8384 4.89914 37.6736 5.222C38.7785 5.65149 39.5693 6.16688 40.3987 6.99624C41.228 7.8256 41.7405 8.61349 42.17 9.72127C42.4958 10.5536 42.8808 11.8095 42.9845 14.1198C43.1 16.6168 43.1237 17.3662 43.1237 23.6901C43.1237 30.0139 43.1 30.7663 42.9845 33.2632C42.8808 35.5736 42.4928 36.8265 42.17 37.6618C41.7874 38.6893 41.1814 39.6191 40.3957 40.3839C39.5664 41.2132 38.7785 41.7257 37.6707 42.1551C36.8413 42.481 35.5854 42.866 33.2721 42.9727C30.7751 43.0852 30.0258 43.1119 23.6989 43.1119C17.3721 43.1119 16.6198 43.0852 14.1228 42.9727C11.8124 42.866 10.5595 42.481 9.72424 42.1551C8.69593 41.7738 7.76517 41.1688 6.9992 40.3839C6.21212 39.6185 5.60507 38.6877 5.222 37.6588C4.89914 36.8265 4.51112 35.5706 4.40745 33.2603C4.2949 30.7633 4.2712 30.0139 4.2712 23.6841C4.2712 17.3543 4.2949 16.6109 4.40745 14.1139C4.51408 11.8036 4.89914 10.5477 5.22496 9.71239C5.65445 8.60756 6.16984 7.81671 6.9992 6.98735C7.82856 6.15799 8.61645 5.64557 9.72424 5.21608C10.5595 4.89026 11.8124 4.5052 14.1228 4.39857C16.3088 4.29786 17.1559 4.26824 21.5722 4.26528V4.2712ZM36.3467 8.20473C35.9732 8.20473 35.6035 8.27828 35.2585 8.42118C34.9135 8.56408 34.6 8.77353 34.336 9.03758C34.072 9.30162 33.8625 9.61509 33.7196 9.96008C33.5767 10.3051 33.5031 10.6748 33.5031 11.0482C33.5031 11.4217 33.5767 11.7914 33.7196 12.1364C33.8625 12.4814 34.072 12.7949 34.336 13.0589C34.6 13.323 34.9135 13.5324 35.2585 13.6753C35.6035 13.8182 35.9732 13.8918 36.3467 13.8918C37.1008 13.8918 37.8241 13.5922 38.3573 13.0589C38.8906 12.5257 39.1902 11.8024 39.1902 11.0482C39.1902 10.2941 38.8906 9.57084 38.3573 9.03758C37.8241 8.50432 37.1008 8.20473 36.3467 8.20473ZM23.6989 11.5281C22.0849 11.5029 20.4819 11.7991 18.9834 12.3993C17.4849 12.9996 16.1207 13.892 14.9704 15.0245C13.82 16.157 12.9065 17.5071 12.2829 18.9961C11.6594 20.485 11.3382 22.0832 11.3382 23.6975C11.3382 25.3117 11.6594 26.9099 12.2829 28.3989C12.9065 29.8878 13.82 31.2379 14.9704 32.3704C16.1207 33.5029 17.4849 34.3953 18.9834 34.9956C20.4819 35.5958 22.0849 35.892 23.6989 35.8668C26.8936 35.817 29.9405 34.5129 32.182 32.2362C34.4236 29.9594 35.6799 26.8925 35.6799 23.6975C35.6799 20.5024 34.4236 17.4355 32.182 15.1588C29.9405 12.882 26.8936 11.5779 23.6989 11.5281ZM23.6989 15.7963C24.7363 15.7963 25.7636 16.0007 26.722 16.3977C27.6804 16.7946 28.5513 17.3765 29.2848 18.1101C30.0184 18.8436 30.6003 19.7145 30.9973 20.6729C31.3943 21.6313 31.5986 22.6586 31.5986 23.696C31.5986 24.7334 31.3943 25.7606 30.9973 26.719C30.6003 27.6775 30.0184 28.5483 29.2848 29.2819C28.5513 30.0154 27.6804 30.5973 26.722 30.9943C25.7636 31.3913 24.7363 31.5956 23.6989 31.5956C21.6038 31.5956 19.5945 30.7633 18.113 29.2819C16.6316 27.8004 15.7993 25.7911 15.7993 23.696C15.7993 21.6009 16.6316 19.5916 18.113 18.1101C19.5945 16.6286 21.6038 15.7963 23.6989 15.7963Z" fill="#E7E7E7"/>
</svg>
