<svg width="688" height="83" viewBox="0 0 688 83" fill="none" xmlns="http://www.w3.org/2000/svg">
<path d="M-61.9997 27.814C-65.7674 31.4852 -70.8183 33.5406 -76.0802 33.5406H-90L-63.8514 7.39196C-59.4402 2.98082 -53.4562 0.5 -47.2149 0.5H-33.9744L-61.9997 27.814ZM2.12256 0.5H-11.118C-17.3593 0.5 -23.3433 2.97725 -27.7544 7.39196L-53.9031 33.5406H-39.9833C-34.7214 33.5406 -29.6704 31.4852 -25.9027 27.814L2.12256 0.5ZM38.2195 0.5H24.979C18.7376 0.5 12.7536 2.97725 8.34248 7.39196L-17.8062 33.5406H-3.88642C1.37548 33.5406 6.42648 31.4852 10.1942 27.814L38.2195 0.5ZM74.3164 0.5H61.0759C54.8345 0.5 48.8505 2.97725 44.4394 7.39196L18.2908 33.5406H32.2105C37.4724 33.5406 42.5234 31.4852 46.2911 27.814L74.3164 0.5ZM110.413 0.5H97.1728C90.935 0.5 84.9475 2.97725 80.5363 7.39196L54.3877 33.5406H68.3074C73.5693 33.5406 78.6203 31.4852 82.388 27.814L110.413 0.5ZM146.51 0.5H133.27C127.032 0.5 121.048 2.97725 116.633 7.39196L90.4846 33.5406H104.404C109.666 33.5406 114.717 31.4852 118.485 27.814L146.51 0.5ZM182.607 0.5H169.367C163.125 0.5 157.141 2.97725 152.73 7.39196L126.582 33.5406H140.501C145.763 33.5406 150.814 31.4852 154.582 27.814L182.607 0.5ZM218.704 0.5H205.464C199.222 0.5 193.238 2.97725 188.827 7.39196L162.678 33.5406H176.598C181.86 33.5406 186.911 31.4852 190.679 27.814L218.704 0.5ZM254.801 0.5H241.56C235.319 0.5 229.335 2.97725 224.924 7.39196L198.775 33.5406H212.695C217.957 33.5406 223.008 31.4852 226.776 27.814L254.801 0.5ZM290.898 0.5H277.657C271.42 0.5 265.432 2.97725 261.021 7.39196L234.872 33.5406H248.792C254.054 33.5406 259.105 31.4852 262.873 27.814L290.898 0.5ZM326.995 0.5H313.754C307.517 0.5 301.533 2.97725 297.118 7.39196L270.969 33.5406H284.889C290.151 33.5406 295.202 31.4852 298.97 27.814L326.995 0.5ZM363.092 0.5H349.851C343.61 0.5 337.626 2.97725 333.215 7.39196L307.066 33.5406H320.986C326.248 33.5406 331.299 31.4852 335.066 27.814L363.092 0.5ZM399.189 0.5H385.948C379.707 0.5 373.723 2.97725 369.312 7.39196L343.163 33.5406H357.083C362.345 33.5406 367.396 31.4852 371.163 27.814L399.189 0.5ZM435.286 0.5H422.045C415.804 0.5 409.82 2.97725 405.409 7.39196L379.26 33.5406H393.18C398.442 33.5406 403.493 31.4852 407.26 27.814L435.286 0.5ZM471.383 0.5H458.142C451.904 0.5 445.917 2.97725 441.506 7.39196L415.357 33.5406H429.277C434.539 33.5406 439.589 31.4852 443.357 27.814L471.383 0.5ZM507.479 0.5H494.239C488.001 0.5 482.017 2.97725 477.602 7.39196L451.454 33.5406H465.374C470.635 33.5406 475.686 31.4852 479.454 27.814L507.479 0.5ZM543.576 0.5H530.336C524.094 0.5 518.11 2.97725 513.699 7.39196L487.551 33.5406H501.47C506.732 33.5406 511.783 31.4852 515.551 27.814L543.576 0.5ZM579.673 0.5H566.433C560.191 0.5 554.207 2.97725 549.796 7.39196L523.648 33.5406H537.567C542.829 33.5406 547.88 31.4852 551.648 27.814L579.673 0.5ZM615.77 0.5H602.53C596.288 0.5 590.304 2.97725 585.893 7.39196L559.745 33.5406H573.664C578.926 33.5406 583.977 31.4852 587.745 27.814L615.77 0.5ZM651.867 0.5H638.627C632.385 0.5 626.401 2.97725 621.99 7.39196L595.841 33.5406H609.761C615.023 33.5406 620.074 31.4852 623.842 27.814L651.867 0.5ZM687.964 0.5H674.724C668.486 0.5 662.498 2.97725 658.087 7.39196L631.938 33.5406H645.858C651.12 33.5406 656.171 31.4852 659.939 27.814L687.964 0.5Z" fill="white"/>
<path d="M-41.8058 53.0267L-64.2189 74.8715C-67.4111 77.9814 -71.622 79.6937 -76.076 79.6937H-82.2995L-61.5915 58.9821C-57.7488 55.143 -52.6442 53.0267 -47.2071 53.0267H-41.8022M-33.9666 49.8381H-47.2071C-53.4485 49.8381 -59.4324 52.3154 -63.8435 56.7301L-89.9922 82.8787H-76.0725C-70.8106 82.8787 -65.7596 80.8233 -61.9919 77.1521L-33.9666 49.8381ZM-5.70527 53.0267L-28.1184 74.8715C-31.3106 77.9814 -35.5215 79.6937 -39.9755 79.6937H-46.199L-25.491 58.9857C-21.6483 55.143 -16.5401 53.0267 -11.1066 53.0267H-5.70169M2.13394 49.8381H-11.1066C-17.3479 49.8381 -23.3319 52.3154 -27.7431 56.7301L-53.8917 82.8787H-39.972C-34.7101 82.8787 -29.6591 80.8233 -25.8914 77.1521L2.13394 49.8381ZM30.3952 53.0267L7.98207 74.8715C4.7899 77.9814 0.578981 79.6937 -3.87505 79.6937H-10.0985L10.6095 58.9821C14.4522 55.143 19.5604 53.0267 24.9939 53.0267H30.3988M38.2344 49.8381H24.9939C18.7526 49.8381 12.7686 52.3154 8.35743 56.7301L-17.7912 82.8787H-3.87147C1.39043 82.8787 6.44139 80.8233 10.2091 77.1521L38.2344 49.8381ZM66.4957 53.0267L44.0826 74.8715C40.894 77.9814 36.683 79.6937 32.2254 79.6937H26.0019L46.71 58.9821C50.5527 55.143 55.6573 53.0267 61.0908 53.0267H66.4957ZM74.3313 49.8381H61.0908C54.853 49.8381 48.8655 52.3154 44.4543 56.7301L18.3057 82.8787H32.2254C37.4873 82.8787 42.5383 80.8233 46.306 77.1521L74.3313 49.8381ZM102.593 53.0267L80.1795 74.8715C76.9873 77.9814 72.7764 79.6937 68.3223 79.6937H62.0989L82.8069 58.9821C86.6496 55.143 91.7542 53.0267 97.1877 53.0267H102.593ZM110.428 49.8381H97.1877C90.9499 49.8381 84.966 52.3154 80.5512 56.7301L54.4026 82.8787H68.3223C73.5842 82.8787 78.6352 80.8233 82.4029 77.1521L110.428 49.8381ZM138.69 53.0267L116.276 74.8715C113.088 77.9814 108.877 79.6937 104.419 79.6937H98.1958L118.904 58.9821C122.747 55.143 127.851 53.0267 133.288 53.0267H138.693M146.529 49.8381H133.288C127.047 49.8381 121.063 52.3154 116.652 56.7301L90.5031 82.8787H104.423C109.685 82.8787 114.736 80.8233 118.503 77.1521L146.529 49.8381ZM174.79 53.0267L152.377 74.8715C149.185 77.9814 144.974 79.6937 140.52 79.6937H134.296L155.004 58.9821C158.847 55.143 163.955 53.0267 169.389 53.0267H174.794M182.629 49.8381H169.389C163.147 49.8381 157.163 52.3154 152.752 56.7301L126.604 82.8787H140.523C145.785 82.8787 150.836 80.8233 154.604 77.1521L182.629 49.8381ZM210.891 53.0267L188.477 74.8715C185.285 77.9814 181.074 79.6937 176.62 79.6937H170.397L191.105 58.9821C194.948 55.143 200.056 53.0267 205.489 53.0267H210.894M218.73 49.8381H205.489C199.248 49.8381 193.264 52.3154 188.853 56.7301L162.704 82.8787H176.624C181.886 82.8787 186.937 80.8233 190.704 77.1521L218.73 49.8381ZM246.991 53.0267L224.578 74.8715C221.389 77.9814 217.178 79.6937 212.721 79.6937H206.497L227.205 58.9821C231.048 55.143 236.153 53.0267 241.586 53.0267H246.991ZM254.827 49.8381H241.586C235.348 49.8381 229.361 52.3154 224.95 56.7301L198.801 82.8787H212.721C217.983 82.8787 223.034 80.8233 226.801 77.1521L254.827 49.8381ZM283.088 53.0267L260.675 74.8715C257.483 77.9814 253.275 79.6937 248.818 79.6937H242.594L263.302 58.9821C267.145 55.143 272.25 53.0267 277.683 53.0267H283.088ZM290.924 49.8381H277.683C271.442 49.8381 265.461 52.3154 261.047 56.7301L234.898 82.8787H248.818C254.08 82.8787 259.131 80.8233 262.898 77.1521L290.924 49.8381ZM319.185 53.0267L296.772 74.8715C293.583 77.9814 289.372 79.6937 284.915 79.6937H278.691L299.399 58.9821C303.242 55.143 308.346 53.0267 313.783 53.0267H319.188M327.024 49.8381H313.783C307.542 49.8381 301.558 52.3154 297.147 56.7301L270.998 82.8787H284.918C290.18 82.8787 295.231 80.8233 298.999 77.1521L327.024 49.8381ZM355.285 53.0267L332.872 74.8715C329.68 77.9814 325.469 79.6937 321.015 79.6937H314.792L335.5 58.9821C339.342 55.143 344.45 53.0267 349.88 53.0267H355.285ZM363.121 49.8381H349.88C343.643 49.8381 337.659 52.3154 333.244 56.7301L307.095 82.8787H321.015C326.277 82.8787 331.328 80.8233 335.096 77.1521L363.121 49.8381ZM391.382 53.0267L368.969 74.8715C365.777 77.9814 361.566 79.6937 357.112 79.6937H350.888L371.596 58.9821C375.439 55.143 380.547 53.0267 385.981 53.0267H391.386M399.221 49.8381H385.981C379.74 49.8381 373.756 52.3154 369.344 56.7301L343.196 82.8787H357.116C362.377 82.8787 367.428 80.8233 371.196 77.1521L399.221 49.8381ZM427.483 53.0267L405.07 74.8715C401.877 77.9814 397.67 79.6937 393.212 79.6937H386.989L407.697 58.9821C411.54 55.143 416.644 53.0267 422.078 53.0267H427.483ZM435.318 49.8381H422.078C415.836 49.8381 409.853 52.3154 405.441 56.7301L379.293 82.8787H393.212C398.474 82.8787 403.525 80.8233 407.293 77.1521L435.318 49.8381ZM463.58 53.0267L441.167 74.8715C437.974 77.9814 433.767 79.6937 429.309 79.6937H423.086L443.794 58.9821C447.637 55.143 452.741 53.0267 458.175 53.0267H463.58ZM471.415 49.8381H458.175C451.933 49.8381 445.949 52.3154 441.538 56.7301L415.39 82.8787H429.309C434.571 82.8787 439.622 80.8233 443.39 77.1521L471.415 49.8381ZM499.677 53.0267L477.263 74.8715C474.075 77.9814 469.864 79.6937 465.406 79.6937H459.183L479.891 58.9821C483.734 55.143 488.838 53.0267 494.272 53.0267H499.677ZM507.512 49.8381H494.272C488.034 49.8381 482.046 52.3154 477.635 56.7301L451.487 82.8787H465.406C470.668 82.8787 475.719 80.8233 479.487 77.1521L507.512 49.8381ZM535.773 53.0267L513.36 74.8715C510.168 77.9814 505.957 79.6937 501.503 79.6937H495.28L515.988 58.9821C519.831 55.143 524.939 53.0267 530.369 53.0267H535.773ZM543.609 49.8381H530.369C524.131 49.8381 518.147 52.3154 513.732 56.7301L487.583 82.8787H501.503C506.762 82.8787 511.816 80.8233 515.584 77.1521L543.609 49.8381ZM571.87 53.0267L549.457 74.8715C546.265 77.9814 542.054 79.6937 537.6 79.6937H531.377L552.085 58.9821C555.927 55.143 561.036 53.0267 566.469 53.0267H571.874M579.71 49.8381H566.469C560.228 49.8381 554.244 52.3154 549.833 56.7301L523.684 82.8787H537.604C542.866 82.8787 547.917 80.8233 551.684 77.1521L579.71 49.8381ZM607.971 53.0267L585.558 74.8715C582.366 77.9814 578.158 79.6937 573.701 79.6937H567.477L588.185 58.9821C592.028 55.143 597.133 53.0267 602.566 53.0267H607.971ZM615.807 49.8381H602.566C596.325 49.8381 590.341 52.3154 585.93 56.7301L559.781 82.8787H573.701C578.963 82.8787 584.013 80.8233 587.781 77.1521L615.807 49.8381ZM644.068 53.0267L621.655 74.8715C618.462 77.9814 614.255 79.6937 609.798 79.6937H603.574L624.282 58.9821C628.125 55.143 633.229 53.0267 638.663 53.0267H644.068ZM651.903 49.8381H638.663C632.422 49.8381 626.438 52.3154 622.026 56.7301L595.878 82.8787H609.798C615.059 82.8787 620.11 80.8233 623.878 77.1521L651.903 49.8381ZM680.165 53.0267L657.752 74.8715C654.559 77.9814 650.349 79.6937 645.894 79.6937H639.671L660.379 58.9821C664.222 55.143 669.326 53.0267 674.76 53.0267H680.165ZM688 49.8381H674.76C668.522 49.8381 662.535 52.3154 658.123 56.7301L631.975 82.8787H645.894C651.156 82.8787 656.207 80.8233 659.975 77.1521L688 49.8381Z" fill="white"/>
</svg>
