<svg width="746" height="83" viewBox="0 0 746 83" fill="none" xmlns="http://www.w3.org/2000/svg">
<path d="M28.0003 27.314C24.2326 30.9852 19.1817 33.0406 13.9198 33.0406H0L26.1486 6.89196C30.5598 2.48082 36.5438 0 42.7851 0H56.0256L28.0003 27.314ZM92.1226 0H78.882C72.6407 0 66.6567 2.47725 62.2456 6.89196L36.0969 33.0406H50.0167C55.2786 33.0406 60.3296 30.9852 64.0973 27.314L92.1226 0ZM128.22 0H114.979C108.738 0 102.754 2.47725 98.3425 6.89196L72.1938 33.0406H86.1136C91.3755 33.0406 96.4265 30.9852 100.194 27.314L128.22 0ZM164.316 0H151.076C144.835 0 138.851 2.47725 134.439 6.89196L108.291 33.0406H122.21C127.472 33.0406 132.523 30.9852 136.291 27.314L164.316 0ZM200.413 0H187.173C180.935 0 174.947 2.47725 170.536 6.89196L144.388 33.0406H158.307C163.569 33.0406 168.62 30.9852 172.388 27.314L200.413 0ZM236.51 0H223.27C217.032 0 211.048 2.47725 206.633 6.89196L180.485 33.0406H194.404C199.666 33.0406 204.717 30.9852 208.485 27.314L236.51 0ZM272.607 0H259.367C253.125 0 247.141 2.47725 242.73 6.89196L216.582 33.0406H230.501C235.763 33.0406 240.814 30.9852 244.582 27.314L272.607 0ZM308.704 0H295.464C289.222 0 283.238 2.47725 278.827 6.89196L252.678 33.0406H266.598C271.86 33.0406 276.911 30.9852 280.679 27.314L308.704 0ZM344.801 0H331.56C325.319 0 319.335 2.47725 314.924 6.89196L288.775 33.0406H302.695C307.957 33.0406 313.008 30.9852 316.776 27.314L344.801 0ZM380.898 0H367.657C361.42 0 355.432 2.47725 351.021 6.89196L324.872 33.0406H338.792C344.054 33.0406 349.105 30.9852 352.873 27.314L380.898 0ZM416.995 0H403.754C397.517 0 391.533 2.47725 387.118 6.89196L360.969 33.0406H374.889C380.151 33.0406 385.202 30.9852 388.97 27.314L416.995 0ZM453.092 0H439.851C433.61 0 427.626 2.47725 423.215 6.89196L397.066 33.0406H410.986C416.248 33.0406 421.299 30.9852 425.066 27.314L453.092 0ZM489.189 0H475.948C469.707 0 463.723 2.47725 459.312 6.89196L433.163 33.0406H447.083C452.345 33.0406 457.396 30.9852 461.163 27.314L489.189 0ZM525.286 0H512.045C505.804 0 499.82 2.47725 495.409 6.89196L469.26 33.0406H483.18C488.442 33.0406 493.493 30.9852 497.26 27.314L525.286 0ZM561.383 0H548.142C541.904 0 535.917 2.47725 531.506 6.89196L505.357 33.0406H519.277C524.539 33.0406 529.589 30.9852 533.357 27.314L561.383 0ZM597.479 0H584.239C578.001 0 572.017 2.47725 567.602 6.89196L541.454 33.0406H555.374C560.635 33.0406 565.686 30.9852 569.454 27.314L597.479 0ZM633.576 0H620.336C614.094 0 608.11 2.47725 603.699 6.89196L577.551 33.0406H591.47C596.732 33.0406 601.783 30.9852 605.551 27.314L633.576 0ZM669.673 0H656.433C650.191 0 644.207 2.47725 639.796 6.89196L613.648 33.0406H627.567C632.829 33.0406 637.88 30.9852 641.648 27.314L669.673 0ZM705.77 0H692.53C686.288 0 680.304 2.47725 675.893 6.89196L649.745 33.0406H663.664C668.926 33.0406 673.977 30.9852 677.745 27.314L705.77 0ZM741.867 0H728.627C722.385 0 716.401 2.47725 711.99 6.89196L685.841 33.0406H699.761C705.023 33.0406 710.074 30.9852 713.842 27.314L741.867 0ZM777.964 0H764.724C758.486 0 752.498 2.47725 748.087 6.89196L721.938 33.0406H735.858C741.12 33.0406 746.171 30.9852 749.939 27.314L777.964 0Z" fill="white"/>
<path d="M48.1942 52.5267L25.7811 74.3715C22.5889 77.4814 18.378 79.1937 13.924 79.1937H7.70049L28.4085 58.4821C32.2512 54.643 37.3558 52.5267 42.7929 52.5267H48.1978M56.0334 49.3381H42.7929C36.5515 49.3381 30.5676 51.8154 26.1565 56.2301L0.0078125 82.3787H13.9275C19.1894 82.3787 24.2404 80.3233 28.0081 76.6521L56.0334 49.3381ZM84.2947 52.5267L61.8816 74.3715C58.6894 77.4814 54.4785 79.1937 50.0245 79.1937H43.801L64.509 58.4857C68.3517 54.643 73.4599 52.5267 78.8934 52.5267H84.2983M92.1339 49.3381H78.8934C72.6521 49.3381 66.6681 51.8154 62.2569 56.2301L36.1083 82.3787H50.028C55.2899 82.3787 60.3409 80.3233 64.1086 76.6521L92.1339 49.3381ZM120.395 52.5267L97.9821 74.3715C94.7899 77.4814 90.579 79.1937 86.125 79.1937H79.9015L100.609 58.4821C104.452 54.643 109.56 52.5267 114.994 52.5267H120.399M128.234 49.3381H114.994C108.753 49.3381 102.769 51.8154 98.3574 56.2301L72.2088 82.3787H86.1285C91.3904 82.3787 96.4414 80.3233 100.209 76.6521L128.234 49.3381ZM156.496 52.5267L134.083 74.3715C130.894 77.4814 126.683 79.1937 122.225 79.1937H116.002L136.71 58.4821C140.553 54.643 145.657 52.5267 151.091 52.5267H156.496ZM164.331 49.3381H151.091C144.853 49.3381 138.865 51.8154 134.454 56.2301L108.306 82.3787H122.225C127.487 82.3787 132.538 80.3233 136.306 76.6521L164.331 49.3381ZM192.593 52.5267L170.18 74.3715C166.987 77.4814 162.776 79.1937 158.322 79.1937H152.099L172.807 58.4821C176.65 54.643 181.754 52.5267 187.188 52.5267H192.593ZM200.428 49.3381H187.188C180.95 49.3381 174.966 51.8154 170.551 56.2301L144.403 82.3787H158.322C163.584 82.3787 168.635 80.3233 172.403 76.6521L200.428 49.3381ZM228.69 52.5267L206.276 74.3715C203.088 77.4814 198.877 79.1937 194.419 79.1937H188.196L208.904 58.4821C212.747 54.643 217.851 52.5267 223.288 52.5267H228.693M236.529 49.3381H223.288C217.047 49.3381 211.063 51.8154 206.652 56.2301L180.503 82.3787H194.423C199.685 82.3787 204.736 80.3233 208.503 76.6521L236.529 49.3381ZM264.79 52.5267L242.377 74.3715C239.185 77.4814 234.974 79.1937 230.52 79.1937H224.296L245.004 58.4821C248.847 54.643 253.955 52.5267 259.389 52.5267H264.794M272.629 49.3381H259.389C253.147 49.3381 247.163 51.8154 242.752 56.2301L216.604 82.3787H230.523C235.785 82.3787 240.836 80.3233 244.604 76.6521L272.629 49.3381ZM300.891 52.5267L278.477 74.3715C275.285 77.4814 271.074 79.1937 266.62 79.1937H260.397L281.105 58.4821C284.948 54.643 290.056 52.5267 295.489 52.5267H300.894M308.73 49.3381H295.489C289.248 49.3381 283.264 51.8154 278.853 56.2301L252.704 82.3787H266.624C271.886 82.3787 276.937 80.3233 280.704 76.6521L308.73 49.3381ZM336.991 52.5267L314.578 74.3715C311.389 77.4814 307.178 79.1937 302.721 79.1937H296.497L317.205 58.4821C321.048 54.643 326.153 52.5267 331.586 52.5267H336.991ZM344.827 49.3381H331.586C325.348 49.3381 319.361 51.8154 314.95 56.2301L288.801 82.3787H302.721C307.983 82.3787 313.034 80.3233 316.801 76.6521L344.827 49.3381ZM373.088 52.5267L350.675 74.3715C347.483 77.4814 343.275 79.1937 338.818 79.1937H332.594L353.302 58.4821C357.145 54.643 362.25 52.5267 367.683 52.5267H373.088ZM380.924 49.3381H367.683C361.442 49.3381 355.461 51.8154 351.047 56.2301L324.898 82.3787H338.818C344.08 82.3787 349.131 80.3233 352.898 76.6521L380.924 49.3381ZM409.185 52.5267L386.772 74.3715C383.583 77.4814 379.372 79.1937 374.915 79.1937H368.691L389.399 58.4821C393.242 54.643 398.346 52.5267 403.783 52.5267H409.188M417.024 49.3381H403.783C397.542 49.3381 391.558 51.8154 387.147 56.2301L360.998 82.3787H374.918C380.18 82.3787 385.231 80.3233 388.999 76.6521L417.024 49.3381ZM445.285 52.5267L422.872 74.3715C419.68 77.4814 415.469 79.1937 411.015 79.1937H404.792L425.5 58.4821C429.342 54.643 434.45 52.5267 439.88 52.5267H445.285ZM453.121 49.3381H439.88C433.643 49.3381 427.659 51.8154 423.244 56.2301L397.095 82.3787H411.015C416.277 82.3787 421.328 80.3233 425.096 76.6521L453.121 49.3381ZM481.382 52.5267L458.969 74.3715C455.777 77.4814 451.566 79.1937 447.112 79.1937H440.888L461.596 58.4821C465.439 54.643 470.547 52.5267 475.981 52.5267H481.386M489.221 49.3381H475.981C469.74 49.3381 463.756 51.8154 459.344 56.2301L433.196 82.3787H447.116C452.377 82.3787 457.428 80.3233 461.196 76.6521L489.221 49.3381ZM517.483 52.5267L495.07 74.3715C491.877 77.4814 487.67 79.1937 483.212 79.1937H476.989L497.697 58.4821C501.54 54.643 506.644 52.5267 512.078 52.5267H517.483ZM525.318 49.3381H512.078C505.836 49.3381 499.853 51.8154 495.441 56.2301L469.293 82.3787H483.212C488.474 82.3787 493.525 80.3233 497.293 76.6521L525.318 49.3381ZM553.58 52.5267L531.167 74.3715C527.974 77.4814 523.767 79.1937 519.309 79.1937H513.086L533.794 58.4821C537.637 54.643 542.741 52.5267 548.175 52.5267H553.58ZM561.415 49.3381H548.175C541.933 49.3381 535.949 51.8154 531.538 56.2301L505.39 82.3787H519.309C524.571 82.3787 529.622 80.3233 533.39 76.6521L561.415 49.3381ZM589.677 52.5267L567.263 74.3715C564.075 77.4814 559.864 79.1937 555.406 79.1937H549.183L569.891 58.4821C573.734 54.643 578.838 52.5267 584.272 52.5267H589.677ZM597.512 49.3381H584.272C578.034 49.3381 572.046 51.8154 567.635 56.2301L541.487 82.3787H555.406C560.668 82.3787 565.719 80.3233 569.487 76.6521L597.512 49.3381ZM625.773 52.5267L603.36 74.3715C600.168 77.4814 595.957 79.1937 591.503 79.1937H585.28L605.988 58.4821C609.831 54.643 614.939 52.5267 620.369 52.5267H625.773ZM633.609 49.3381H620.369C614.131 49.3381 608.147 51.8154 603.732 56.2301L577.583 82.3787H591.503C596.762 82.3787 601.816 80.3233 605.584 76.6521L633.609 49.3381ZM661.87 52.5267L639.457 74.3715C636.265 77.4814 632.054 79.1937 627.6 79.1937H621.377L642.085 58.4821C645.927 54.643 651.036 52.5267 656.469 52.5267H661.874M669.71 49.3381H656.469C650.228 49.3381 644.244 51.8154 639.833 56.2301L613.684 82.3787H627.604C632.866 82.3787 637.917 80.3233 641.684 76.6521L669.71 49.3381ZM697.971 52.5267L675.558 74.3715C672.366 77.4814 668.158 79.1937 663.701 79.1937H657.477L678.185 58.4821C682.028 54.643 687.133 52.5267 692.566 52.5267H697.971ZM705.807 49.3381H692.566C686.325 49.3381 680.341 51.8154 675.93 56.2301L649.781 82.3787H663.701C668.963 82.3787 674.013 80.3233 677.781 76.6521L705.807 49.3381ZM734.068 52.5267L711.655 74.3715C708.462 77.4814 704.255 79.1937 699.798 79.1937H693.574L714.282 58.4821C718.125 54.643 723.229 52.5267 728.663 52.5267H734.068ZM741.903 49.3381H728.663C722.422 49.3381 716.438 51.8154 712.026 56.2301L685.878 82.3787H699.798C705.059 82.3787 710.11 80.3233 713.878 76.6521L741.903 49.3381ZM770.165 52.5267L747.752 74.3715C744.559 77.4814 740.349 79.1937 735.894 79.1937H729.671L750.379 58.4821C754.222 54.643 759.326 52.5267 764.76 52.5267H770.165ZM778 49.3381H764.76C758.522 49.3381 752.535 51.8154 748.123 56.2301L721.975 82.3787H735.894C741.156 82.3787 746.207 80.3233 749.975 76.6521L778 49.3381Z" fill="white"/>
</svg>
