<svg width="61" height="47" viewBox="0 0 61 47" fill="none" xmlns="http://www.w3.org/2000/svg">
<path d="M51.5632 3.85128C47.6141 2.03767 43.4465 0.744002 39.1646 0.00264424C39.1258 -0.0038887 39.0859 0.00175358 39.0505 0.0187955C39.015 0.0358374 38.9857 0.0634418 38.9666 0.0978131C38.4299 1.0495 37.836 2.29431 37.4211 3.26884C32.8057 2.56901 28.1113 2.56901 23.496 3.26884C23.035 2.18234 22.5114 1.12354 21.9276 0.0978131C21.9085 0.0634418 21.8792 0.0358374 21.8437 0.0187955C21.8083 0.00175358 21.7684 -0.0038887 21.7296 0.00264424C17.447 0.741155 13.2786 2.03545 9.33101 3.85128C9.29706 3.86389 9.26872 3.88818 9.25107 3.9198C1.35585 15.7169 -0.810197 27.2248 0.251889 38.5879C0.259503 38.6438 0.28615 38.6907 0.331831 38.7288C4.93028 42.1329 10.0724 44.7329 15.5398 46.4185C15.5784 46.4306 15.6199 46.4302 15.6583 46.4172C15.6966 46.4042 15.7298 46.3793 15.753 46.3461C16.928 44.7473 17.966 43.0609 18.8669 41.2869C18.8857 41.2504 18.8921 41.2088 18.8852 41.1683C18.8784 41.1278 18.8586 41.0907 18.8289 41.0623L18.7603 41.0205C17.121 40.3884 15.5327 39.6312 14.0095 38.7554C13.967 38.7314 13.9354 38.6918 13.9212 38.6451C13.907 38.5983 13.9114 38.5478 13.9334 38.5042L13.9905 38.4319C14.3128 38.1908 14.6275 37.9433 14.9346 37.6896C14.9615 37.6679 14.9937 37.654 15.0279 37.6493C15.0621 37.6446 15.097 37.6493 15.1287 37.6629C25.0986 42.2158 35.8908 42.2158 45.7388 37.6629C45.7715 37.6478 45.8079 37.6423 45.8436 37.647C45.8793 37.6517 45.9129 37.6665 45.9406 37.6896C46.2477 37.9433 46.5624 38.1908 46.8847 38.4319C46.9115 38.4502 46.9331 38.4751 46.9476 38.5041C46.9621 38.5332 46.9688 38.5655 46.9673 38.5979C46.9658 38.6303 46.956 38.6618 46.9389 38.6894C46.9217 38.717 46.8978 38.7397 46.8695 38.7554C45.3528 39.645 43.762 40.4016 42.1148 41.0167C42.0886 41.0262 42.0647 41.0413 42.045 41.0611C42.0253 41.0808 42.0101 41.1046 42.0006 41.1309C41.9913 41.1562 41.9876 41.1832 41.9895 41.2101C41.9915 41.237 41.9992 41.2632 42.012 41.2869C42.9256 43.0571 43.9725 44.7473 45.1221 46.3461C45.1454 46.3793 45.1786 46.4042 45.2169 46.4172C45.2552 46.4302 45.2967 46.4306 45.3353 46.4185C50.8135 44.7422 55.9647 42.1415 60.5662 38.7288C60.589 38.7126 60.608 38.6916 60.6219 38.6673C60.6357 38.643 60.644 38.6159 60.6461 38.5879C61.9176 25.4508 58.5181 14.0382 51.6393 3.92361C51.6333 3.90634 51.6233 3.89076 51.6101 3.87817C51.5968 3.86559 51.5807 3.85636 51.5632 3.85128ZM20.3554 31.6673C17.3518 31.6673 14.8813 28.9112 14.8813 25.5308C14.8813 22.1504 17.3062 19.3905 20.3554 19.3905C23.4274 19.3905 25.8752 22.1694 25.8295 25.5308C25.8295 28.9112 23.4046 31.6673 20.3554 31.6673ZM40.5921 31.6673C37.5924 31.6673 35.118 28.9112 35.118 25.5308C35.118 22.1504 37.5429 19.3905 40.5921 19.3905C43.6642 19.3905 46.1157 22.1694 46.0662 25.5308C46.0662 28.9112 43.6642 31.6673 40.5921 31.6673Z" fill="#D0CACA"/>
</svg>
