<svg width="48" height="48" viewBox="0 0 48 48" fill="none" xmlns="http://www.w3.org/2000/svg">
<path d="M0 3.39445C0 1.5195 1.55801 0 3.48035 0H43.9116C45.8339 0 47.392 1.5195 47.392 3.39445V43.9975C47.392 45.8724 45.8339 47.392 43.9116 47.392H3.48035C1.55801 47.392 0 45.8724 0 43.9975V3.39445ZM14.6412 39.673V18.2726H7.5294V39.673H14.6412ZM11.0868 15.3491C13.5659 15.3491 15.1091 13.7081 15.1091 11.6525C15.0647 9.55244 13.5689 7.95592 11.1341 7.95592C8.69939 7.95592 7.10879 9.5554 7.10879 11.6525C7.10879 13.7081 8.65199 15.3491 11.0394 15.3491H11.0868ZM25.6242 39.673V27.7213C25.6242 27.0815 25.6716 26.4417 25.8612 25.9856C26.3736 24.709 27.5436 23.385 29.5104 23.385C32.0844 23.385 33.1122 25.3458 33.1122 28.2249V39.673H40.2239V27.3985C40.2239 20.8228 36.7169 17.7661 32.037 17.7661C28.2634 17.7661 26.5721 19.8395 25.6242 21.2997V21.3738H25.5768L25.6242 21.2997V18.2726H18.5154C18.6043 20.2808 18.5154 39.673 18.5154 39.673H25.6242Z" fill="#E7E7E7"/>
</svg>
