<svg width="64" height="48" viewBox="0 0 64 48" fill="none" xmlns="http://www.w3.org/2000/svg">
<g style="mix-blend-mode:luminosity">
<path d="M4.30021 47.29H14.3254V22.9471L0 12.1932V42.9909C0 45.3744 1.92967 47.29 4.30021 47.29Z" fill="#7D7D7D"/>
<path d="M48.7246 47.29H58.7498C61.1203 47.29 63.05 45.3608 63.05 42.9909V12.1932L48.7246 22.9335V47.29Z" fill="#535353"/>
<path d="M48.7246 4.31407V22.9335L63.05 12.1932V6.45745C63.05 1.15009 56.9851 -1.88832 52.7354 1.30151L48.7246 4.31407Z" fill="#BBBBBB"/>
<path d="M14.3252 22.9471V4.31406L31.5248 17.2113L48.7244 4.31406V22.9471L31.5248 35.8307L14.3252 22.9471Z" fill="#747474"/>
<path d="M0 6.46974V12.2055L14.3254 22.9458V4.31405L10.3146 1.31381C6.06487 -1.87602 0 1.16238 0 6.46974Z" fill="#747474"/>
</g>
</svg>
